/* XPM */
static char * blackhitblock_xpm[] = {
"50 30 11 1",
" 	s None	c None",
".	c #8B8B9999B5B5",
"X	c black",
"o	c gray26",
"O	c gray40",
"+	c #7E7E7E7E7E7E",
"@	c dimgray",
"#	c red4",
"$	c red3",
"%	c red2",
"&	c red1",
"  ..............................................  ",
" X..............................................X ",
"..X............................................Xoo",
"...XXXXXXXXXXXXXXXXXXXXXXXXXXXXXXXXXXXXXXXXXXXXooo",
"...XOOOX+++X++X@@@@@@X@@@@@X++++X++++X@@@@@@@@Xooo",
"...XOOOX+++XXXXXXXXXXX@@@@@X++++X++++X@@@@@@@@Xooo",
"...XXXXX+++X++X@@@@@@XXXXXXXXXXXX+XXXXXXXXXXXXXooo",
"...X+++X+++X++X@@@@@@@@@@@@XOOOOX+X++X@@@@@X@@Xooo",
"...X+++X++oooooooooooooooooooooooooooooo@@@X@@Xooo",
"...X+++X++oXXXXXXXXXXXXXXXXXXXXXXXXXXXX.@@@X@@Xooo",
"...XXXXXXXoX##########################X.@@@X@@Xooo",
"...X@X@@@@oX#$$$$$$$$$$$$$$$$$$$$$$$$#X.XXXXXXXooo",
"...X@X@@@@oX#$%%%%%%%%%%%%%%%%%%%%%%$#X.OOOX++Xooo",
"...X@X@@@@oX#$%%%%%%%%%%%%%%%%%%%%%%$#X.OOOX++Xooo",
"...X@XXXXXoX#$%&&&&&&&&&&&&&&&&&&&&%$#X.OOOX++Xooo",
"...X@X@@@@oX#$%&&&&&&&&&&&&&&&&&&&&%$#X.XXXX++Xooo",
"...X@X@@@@oX#$%%%%%%%%%%%%%%%%%%%%%%$#X.+++X++Xooo",
"...X@X@@@@oX#$%%%%%%%%%%%%%%%%%%%%%%$#X.+++XXXXooo",
"...X@X@@@@oX#$$$$$$$$$$$$$$$$$$$$$$$$#X.+++X++Xooo",
"...XXXXXXXoX##########################X.+++X++Xooo",
"...X+++X++oXXXXXXXXXXXXXXXXXXXXXXXXXXXX.XXXXXXXooo",
"...XXXXX++o.............................OX@@@@Xooo",
"...XOOOX+++++XOOOX@@@@@@@X@@@@@@XOOOOOOOOXXXXXXooo",
"...XOOOXXXXXXXOOOX@@@@@@@X@@@@@@XOOOXXXXXX@@@@Xooo",
"...XOOOX+++++XXXXXXXXXXXXXXXXXXXXOOOX@@@@X@@@@Xooo",
"...XOOOX+++++X+++X@@@@@@@@@@@@@@XOOOX@@@@X@@@@Xooo",
"...XXXXXXXXXXXXXXXXXXXXXXXXXXXXXXXXXXXXXXXXXXXXooo",
"..XooooooooooooooooooooooooooooooooooooooooooooXoo",
" XooooooooooooooooooooooooooooooooooooooooooooooX ",
"  oooooooooooooooooooooooooooooooooooooooooooooo  "};
