/* XPM */
static char *floppy_xpm[] = {
/* width height ncolors chars_per_pixel */
"32 32 9 1",
/* colors */
" 	s None	c None",
".	c tomato",
"X	c white",
"o	c grey",
"O	c red",
"+	c black",
"@	c darkslategray",
"#	c slategrey",
"$	c firebrick",
/* pixels */
".......XoooooXoooXoXooooO..OO   ",
".OO+OOOX@@@#o@@#Xo@o@##@+OOOOO  ",
".OO+OOOX@@#o@@#X#@@@##o@+OOOOOO ",
".OO+OOOX@#o@@#Xo@+++Xoo@+OOOOOO+",
".OO+OOOX@o@@#Xo@@+$$Xo#@+OOOOOO+",
".OO+OOOXo@@#Xo@@@+$$X##@+OOOOOO+",
".OO+OOOX@@#Xo@@@@+$$X#o@+OOOOOO+",
".OO+OOOX@#Xo@@@#@+$$Xo#@+OOOOOO+",
".OO+OOOX#Xo@@@##XXXXo#@@+OOOOOO+",
".OO+OOOXXo@@@##Xo##o#@@@+OOOOOO+",
".OO+OOO.@@@@@@@@@@@@@@@@+OOOOOO+",
".OOO.....+++++++++++++++OOOOOOO+",
".OOOOOOOOOOOOOOOOOOOOOOOOOOOOOO+",
".OOOOOOOOOOOOOOOOOOOOOOOOOOOOOO+",
".OOO.oooooooooooooooooooooo.OOO+",
".OOOoXXXXXXXXXXXXXXXXXXXXXX#OOO+",
".OOOoXXXXXXXXXXXXXXXXXXXXXX#OOO+",
".OOOoXXXXXXXXXXXXXXXXXXXXXX#OOO+",
".OOOoXXXXXXXXXXXXXXXXXXXXXX#OOO+",
".OOOoXoXoXoXoXoXoXoXoXoXoXX#OOO+",
".OOOoXXXXXXXXXXXXXXXXXXXXXX#OOO+",
".OOOoXXXXXXXXXXXXXXXXXXXXXX#OOO+",
".OOOoXXXXXXXXXXXXXXXXXXXXXX#OOO+",
".OOOoXoXoXoXoXoXoXoXoXoXoXX#OOO+",
".OOOoXXXXXXXXXXXXXXXXXXXXXX#OOO+",
".OOOoXXXXXXXXXXXXXXXXXXXXXX#OOO+",
".OOOoXXXXXXXXXXXXXXXXXXXXXX#OOO+",
".OOOoXoXoXoXoXoXoXoXoXoXoXX#OOO+",
".XXOoXXXXXXXXXXXXXXXXXXXXXX#OOO+",
".XXOoXXXXXXXXXXXXXXXXXXXXXX#OOO+",
".OOOoXXXXXXXXXXXXXXXXXXXXXX#OOO+",
"O+++########################+++O"};
