/* XPM */
static char * question_xpm[] = {
/* width height ncolors chars_per_pixel */
"25 30 6 1",
/* colors */
" 	s None	c None",
".	c white",
"X	c yellow",
"o	c #800080000000",
"O	c black",
"+	c #800080008000",
/* pixels */
"       .........         ",
"     ...XXXXXXXXXXX      ",
"   .XXXXooooooooooXXO    ",
"  .XXXooooooooooooooXOO  ",
" .XXXoooooXXXXoooooooXOO ",
" .XXoooooOOO.XXooooooooO ",
"XXXXooooOOOOO.XXoooooooOO",
"XXXoooooOOOOOO.XXooooooOO",
"XXXooooooOOOOO.XXooooooOO",
"XXXooooooOOOOO.XXooooooOO",
" XXooooooOOOO.XXoooooo+OO",
" .XXooooOOOO..XoooooooOOO",
"  .XXooOOOO..XoooooooOOO ",
"   OOOOOOO..XoooooooOOOO ",
"    OOOOO..Xoooooo+OOOO  ",
"     OOO..XooooooOOOOO   ",
"       ..XooooooOOOO     ",
"       .XXoooooOOOO      ",
"       .XXooooOOOO       ",
"        .XXooOOOO        ",
"         .XoOOOO         ",
"          OOOOOO         ",
"         XXooOOO         ",
"        ..XXXoOOO        ",
"       X...XXooOOO       ",
"       XX..XXooOOO       ",
"       XXXXXXooOOO       ",
"        XXXXooOOOO       ",
"         XoooOOOO        ",
"         OOOOOOO         "};
