/* XPM */
static char * guide_xpm[] = {
"29 12 3 1",
" 	s None	c None",
".	c yellow",
"X	c seagreen",
"            .XXX.            ",
"         X...XXX...X         ",
"       XXX...XXX...XXX       ",
"     ..XXXX.     .XXXX..     ",
"    ....X           X....    ",
"   X...               ...X   ",
"  XXX.                 .XXX  ",
" XXXX                   XXXX ",
" .XX                     XX. ",
"...                       ...",
"...                       ...",
"..                         .."};
