/* XPM */
static char * devileyes3_xpm[] = {
/* width height ncolors chars_per_pixel */
"57 16 7 1",
/* colors */
" 	s None	c None",
".	c black",
"X	c #800080008000",
"o	c #c000c000c000",
"O	c white",
"+	c #000080000000",
"@	c green",
/* pixels */
"  .        ........                   ........        .  ",
"   ..................               ..................   ",
" .      ..............             ..............      . ",
"  .....................           .....................  ",
".     ..................         ..................     .",
" ........................       ........................ ",
"    ......................     ......................    ",
"...........................   ...........................",
"  .......................... ..........................  ",
" .....XXoOo.++@+.+.+........ ..........+.+@++.oO........ ",
" ......XXoO.+++@+.+.+....... .......+.+.+@+++.OoXX...... ",
"      ..XXoo.+++@+.+.@+...     ...+@.+.+@+++.ooXX..      ",
"       ..XXXX.+++@@@@+..         ..+@@@@+++.XXXX..       ",
"        ..XXXX.++++++..           ..++++++.XXXX..        ",
"         .............             .............         ",
"           ..........               ..........           "};
