/* XPM */
static char * devileyes1_xpm[] = {
/* width height ncolors chars_per_pixel */
"57 16 7 1",
/* colors */
" 	s None	c None",
".	c black",
"X	c #800080008000",
"o	c #000080000000",
"O	c #c000c000c000",
"+	c white",
"@	c green",
/* pixels */
"  .        ........                   ........        .  ",
"   ..................               ..................   ",
" .      ..............             ..............      . ",
"  .....................           .....................  ",
".     ....XXX.o.........         .........o.XXX....     .",
" .......XXXO.oo+++.......       .......+++oo.OXXX....... ",
"    ...XXO+.oo@.o.o.......     .......o.o.@oo.+OXX...    ",
"......XXO+O.oo@o.o.o.......   .......o.o.o@oo.O+OXX......",
"  ....XX+O+.oo@.o.o.o....... .......o.o.o.@oo.+O+XX....  ",
" .....XXO+O.oo@o.o.o.o...... ......o.o.o.o@oo.O+OXX..... ",
" ......XXO+.ooo@o.o.o.@o.... ....o@.o.o.o@ooo.+OXX...... ",
"      ..XXOO.ooo@o.o.@o...     ...o@.o.o@ooo.OOXX..      ",
"       ..XXXX.ooo@@@@o..         ..o@@@@ooo.XXXX..       ",
"        ..XXXX.oooooo..           ..oooooo.XXXX..        ",
"         .............             .............         ",
"           ..........               ..........           "};
