/* XPM */
static char * eyeguy_dead_xpm[] = {
/* width height ncolors chars_per_pixel */
"32 32 5 1",
/* colors */
" 	s None	c None",
".	c black",
"X	c wheat",
"o	c white",
"O	c dodger blue",
/* pixels */
"                                ",
"                                ",
"         ...... ......          ",
"        .XXXXXX.XXXXXX.         ",
"         .XXXX. .XXXX.          ",
"          .XX.   .XX.           ",
"          .XX.   .XX.           ",
"          .XX.   .XX.           ",
"          .XX.   .XX.           ",
"       ...XXXX...XXX....        ",
"   ....XXXXXXXXXXXXXXXXX....    ",
"  .X.XX.XXXXXXXXXXXXXXX.XX.X.   ",
"  .X.XX.XXXXXXXXXXXXXXX.XX.X.   ",
"  .XXXX.XXXX.X.X.X.XXXX.XXXX.   ",
"   .XX.XXXX.o.o.o.o.XXXX.XX.    ",
"  .XX.XXXX.o.oOoOo.o.XXXX.XX.   ",
"  .XX.XXX.o.oOOOOOo.o.XXX.XX.   ",
" .XX.XXX.o.oOOOOOOOo.o.XXX.XX.  ",
".XX.XXXXX.oOOOOOOOOOo.XXXXX.XX. ",
".XX.XXXX.o.oOOOOOOOo.o.XXXX.XX. ",
".XXX.XXXX.oOOoOOOOOOo.XXXX.XXX. ",
" .XXXXXX.o.oOOoOOOOo.o.XXXXXX.  ",
" .XXXXXXX.o.oOOOOOo.o.XXXXXXX.  ",
"  .XXXXXXX.o.oOoOo.o.XXXXXXX.   ",
"   .XXXXXXX.o.o.o.o.XXXXXXX.    ",
"   .XXXXXXXX.X.X.X.XXXXXXXX.    ",
"    .XXXXXXXXXXXXXXXXXXXXX.     ",
"     .XXXXXXXXXXXXXXXXXXX.      ",
"      .XXXXXXXXXXXXXXXXX.       ",
"       ..XXXXXXXXXXXXX..        ",
"         ...XXXXXXX...          ",
"            .......             "};
