/* XPM */
static char * eyeguy_l2_xpm[] = {
/* width height ncolors chars_per_pixel */
"32 32 5 1",
/* colors */
" 	s None	c None",
".	c black",
"X	c wheat",
"o	c white",
"O	c dodgerblue",
/* pixels */
"                                ",
"                                ",
"            .......             ",
"         ...XXXXXXX...          ",
"       ..XXXXXXXXXXXXX..        ",
"      .XXXXXXXXXXXXXXXXX.       ",
"     .XXXXXXXXXXXXXXXXXXX.      ",
"    .XXXXXXXXXXXXXXXXXXXXX.     ",
"   .XX.X.X.XXXXXXXXXXXXXXXX.    ",
"   .X.o.o.o.XXXXXXXXXXXXXXX.    ",
"  .X.oOoOo.o.XXXXXXXXXXXXXXX.   ",
"  .OoOOOOOo.o.XXXXXXX.XXXXXX.   ",
"  .oOOOOoOOo.o.XXXX.XX.XXXXX.   ",
"  .OOOOOOoOOo.XXXXXX.XX.XXXX.   ",
"  .oOOOOOOOo.o.XXXXXX.XX.XXX.   ",
"  .OOOOOOOOOo.XXXXXXXX.XX.XX.   ",
"  .oOOOOOOOo.o.XXXXXX.XX.XXX.   ",
"  ..oOOOOOo.o.XXXX...XX.XXXX.   ",
"   ..oOoOo.o.XXXX.XXXX.XXXX.    ",
"   .X.o.o.o.XXXX.XXXX.XXXXX.    ",
"    .X.X.X.XXXXX.XXX..XXXX.     ",
"     .XXXXXXXXXXX.XXXX.XX.      ",
"      .XXXXXXXXXXX.XX.XX.       ",
"       ..XXXXXXXXXX..X..        ",
"         ...XX.XXXXXX.          ",
"            ...XXX...           ",
"         .    .XX.XX.           ",
"        .X.. .XX..XX.           ",
"        .XXX..XX.X.XX.          ",
"         .XXXXX.X...X.          ",
"          ..XX.XXXXXXX.         ",
"            ...X.......         "};
