/* XPM */
static char * eyeguy_l4_xpm[] = {
/* width height ncolors chars_per_pixel */
"32 32 5 1",
/* colors */
" 	s None	c None",
".	c black",
"X	c wheat",
"o	c white",
"O	c dodgerblue",
/* pixels */
"                                ",
"                                ",
"            .......             ",
"         ...XXXXXXX...          ",
"       ..XXXXXXXXXXXXX..        ",
"      .XXXXXXXXXXXXXXXXX.       ",
"     .XXXXXXXXXXXXXXXXXXX.      ",
"    .XXXXXXXXXXXXXXXXXXXXX.     ",
"   .XX.X.X.XXXXXXXXXXXXXXXX.    ",
"   .X.o.o.o.XXXXXXXXXXXXXXX.    ",
"  .X.oOoOo.o.XXXXXXXXXXXXXXX.   ",
"  ..oOOOOOo.o.XXXXXXX.XXXXXX.   ",
"  .oOOOOoOOo.o.XXXX.XX.XXXXX.   ",
"  ..OOOOOoOOo.XXXXXX.XX.XXXX.   ",
"  .oOOOOOOOo.o.XXXXXX.XX.XXX.   ",
"  ..OOOOOOOOo.XXXXXXXX.XX.XX.   ",
"  .oOOOOOOOo.o.XXXXXX.XX.XXX.   ",
"  ..oOOOOOo.o.XXXX...XX.XXXX.   ",
"   ..oOoOo.o.XXXX.XXXX.XXXX.    ",
"   .X.o.o.o.XXXX.XXXX.XXXXX.    ",
"    .X.X.X.XXXXX.XXX..XXXX.     ",
"     .XXXXXXXXXXX.XXXX.XX.      ",
"      .XXXXXXXXXXX.XX.XX.       ",
"       ..XXXXXXXXXX..X..        ",
"         ...XXXXXXXXX.          ",
"            ....XXXX.           ",
"        ...  .XX.XX.            ",
"       .XXX...XX.XX.            ",
"        .XXXXXXX.XXX.           ",
"         ...X...X.XXX.          ",
"            .XXXXXXXXX.         ",
"             .........          "};
